:SAMPLES-PER-SECOND 30
:FULLY-SPECIFIED
:DEGREES
183
root  4.08575 39.2323 -0.763022 34.6933 -81.206 -42.4175
RightUpLeg  3.45502 -2.47251 9.32966
RightLeg  18.0561 -13.2064 -5.67007
RightFoot  -8.48532 -0.120872 2.52436
RightToes  -2.32832e-010 0 -3.6325e-017
Spine  17.7096 2.25837 10.2753
Spine1  -1.41775 3.89057 2.08852
HEad  -12.6374 -11.1249 -2.88749
LeftShoulder1  2.13703 -5.74202 -16.3998
LeftArm  29.0095 47.553 -43.0706
LeftForeArm  -8.89715 -40.4613 -10.0821
LeftHand  -1.37009 -5.25755 15.172
RightShoulder  0.45143 -0.968817 10.6713
RightArm  -12.4254 14.813 53.1601
RightForeArm  133.106 73.4432 141.6
RightHand  -0.91733 0.0623486 -19.4852
LeftUpLeg  -36.7836 1.82943 7.20288
LeftLeg  85.803 -0.0839482 4.98904
LeftFoot  -4.96492 0.700396 -12.0436
LeftToes  2.2737e-010 4.38529e-011 2.18788e-011
184
root  3.9101 39.3322 -0.774177 34.2829 -81.0264 -41.3412
RightUpLeg  3.52554 -3.04313 9.02978
RightLeg  16.9362 -12.6395 -5.01925
RightFoot  -7.60525 -0.148151 2.94758
RightToes  -2.32832e-010 0 -3.6325e-017
Spine  17.0943 2.63797 11.2917
Spine1  -2.1295 4.53316 0.840274
HEad  -12.0523 -12.0378 -2.44424
LeftShoulder1  2.15699 -6.18824 -15.4585
LeftArm  30.9516 50.6136 -40.6955
LeftForeArm  -7.268 -42.6042 -10.747
LeftHand  -1.28977 -5.44789 14.0673
RightShoulder  0.39218 -1.26894 10.4184
RightArm  -13.2343 13.2612 54.0002
RightForeArm  139.09 71.1801 147.207
RightHand  -0.772169 -0.535313 -18.3958
LeftUpLeg  -38.0681 1.61888 7.08101
LeftLeg  86.2477 -0.0641613 6.13389
LeftFoot  -2.48728 0.888397 -11.2499
LeftToes  2.2737e-010 4.38529e-011 2.18788e-011
185
root  3.79443 39.5292 -0.794226 33.3623 -81.7619 -39.7763
RightUpLeg  3.63346 -3.29826 8.07201
RightLeg  15.5918 -11.3174 -4.22404
RightFoot  -6.3822 -0.178534 3.13232
RightToes  -2.32832e-010 0 -3.6325e-017
Spine  16.7213 3.10448 11.3387
Spine1  -2.70703 5.13019 -0.588906
HEad  -11.9288 -12.3534 -2.25938
LeftShoulder1  2.10715 -6.20613 -14.8513
LeftArm  31.4261 51.9341 -39.9527
LeftForeArm  -7.04908 -43.3929 -11.0299
LeftHand  -1.24227 -5.29066 13.7578
RightShoulder  0.464076 -0.95508 11.088
RightArm  -12.0042 9.6012 55.1779
RightForeArm  139.398 70.2303 148.878
RightHand  -0.602983 -1.53682 -18.0401
LeftUpLeg  -36.8107 1.71747 6.79009
LeftLeg  82.3003 0.517407 7.65967
LeftFoot  -1.64918 0.910464 -10.5873
LeftToes  2.2737e-010 4.38529e-011 2.18788e-011
186
root  3.69255 39.7168 -0.811305 30.9619 -82.6978 -36.6991
RightUpLeg  3.60218 -3.25227 7.1508
RightLeg  14.4363 -10.478 -3.95975
RightFoot  -5.6406 -0.182886 2.89749
RightToes  -2.32832e-010 0 -3.6325e-017
Spine  16.0414 3.39736 10.4672
Spine1  -2.76194 5.28009 -1.14118
HEad  -12.4298 -11.9652 -2.4441
LeftShoulder1  2.00291 -5.79741 -14.6729
LeftArm  29.9243 51.4905 -41.5918
LeftForeArm  -9.30285 -42.224 -10.7341
LeftHand  -1.1676 -4.778 13.5667
RightShoulder  0.653427 -0.167393 12.6226
RightArm  -9.14513 4.73382 56.2644
RightForeArm  136.818 71.3453 146.609
RightHand  -0.6918 -1.20035 -19.0545
LeftUpLeg  -33.6083 1.48426 6.60133
LeftLeg  74.4831 1.68965 8.12126
LeftFoot  -1.4951 0.859317 -9.87352
LeftToes  2.2737e-010 4.38529e-011 2.18788e-011
187
root  3.57618 39.7682 -0.772048 27.9421 -83.1257 -33.0949
RightUpLeg  3.25303 -3.19276 6.54769
RightLeg  14.3615 -10.5312 -4.08972
RightFoot  -5.9035 -0.180668 2.96466
RightToes  -2.32832e-010 0 -3.6325e-017
Spine  15.0422 3.16536 9.86977
Spine1  -2.28455 4.88567 -1.26818
HEad  -13.2149 -11.0178 -3.17428
LeftShoulder1  1.98871 -5.46388 -15.371
LeftArm  26.8093 49.6664 -44.1566
LeftForeArm  -14.6952 -40.1817 -10.3083
LeftHand  -0.97668 -3.34397 13.1817
RightShoulder  0.818717 0.422151 14.0449
RightArm  -5.43247 -1.03017 58.1793
RightForeArm  126.558 75.4235 134.435
RightHand  -0.864946 0.0776347 -18.3296
LeftUpLeg  -28.9744 -0.0451301 6.74507
LeftLeg  63.7464 2.84175 6.97649
LeftFoot  0.41316 0.924403 -8.98754
LeftToes  2.2737e-010 4.38529e-011 2.18788e-011
188
root  3.45493 39.6915 -0.676514 24.7785 -83.528 -29.8066
RightUpLeg  2.92668 -3.00083 5.93073
RightLeg  15.4058 -10.6452 -4.38094
RightFoot  -6.8281 -0.170847 3.14488
RightToes  -2.32832e-010 0 -3.6325e-017
Spine  14.391 2.39787 9.72806
Spine1  -1.72589 4.18858 -2.16857
HEad  -13.5174 -9.3517 -4.05524
LeftShoulder1  2.09622 -5.33514 -17.0493
LeftArm  22.9937 47.1051 -45.6908
LeftForeArm  -23.0253 -38.642 -10.2054
LeftHand  -0.666051 -0.20311 14.0632
RightShoulder  0.888857 0.575334 15.0679
RightArm  -1.57973 -6.5339 60.6226
RightForeArm  79.6851 79.256 88.0423
RightHand  -0.745641 0.355569 -15.1135
LeftUpLeg  -22.5573 -2.73843 6.67026
LeftLeg  51.5259 3.362 4.99464
LeftFoot  2.12543 1.0764 -9.21137
LeftToes  2.2737e-010 4.38529e-011 2.18788e-011
189
root  3.32551 39.5709 -0.572255 18.7855 -84.8199 -24.0449
RightUpLeg  2.66253 -1.23082 5.00397
RightLeg  17.2188 -11.2228 -4.96939
RightFoot  -8.46216 -0.130416 2.85644
RightToes  -2.32832e-010 0 -3.6325e-017
Spine  14.1014 1.49488 8.79436
Spine1  -1.19394 3.40346 -3.82461
HEad  -13.4036 -6.70913 -4.2612
LeftShoulder1  2.18718 -4.95482 -19.379
LeftArm  18.9472 43.7794 -45.9231
LeftForeArm  -33.7777 -37.8083 -10.3838
LeftHand  -0.218706 3.9457 17.2267
RightShoulder  0.994329 0.796023 16.502
RightArm  2.42158 -10.4954 61.3263
RightForeArm  19.2338 71.7206 35.6872
RightHand  -0.743293 0.291621 -15.0177
LeftUpLeg  -14.8495 -4.97772 5.51603
LeftLeg  39.7042 3.93448 3.82875
LeftFoot  -0.29375 1.05964 -11.0105
LeftToes  2.2737e-010 4.38529e-011 2.18788e-011
190
root  3.22852 39.4532 -0.495571 -1.01698 -86.4971 -4.13216
RightUpLeg  1.09868 1.97818 3.25433
RightLeg  20.9428 -12.6235 -5.6642
RightFoot  -10.7735 -0.0824975 3.09549
RightToes  -2.32832e-010 0 -3.6325e-017
Spine  13.5837 0.961026 5.92147
Spine1  -0.452789 2.5771 -4.83041
HEad  -14.095 -3.75913 -3.60534
LeftShoulder1  2.16347 -4.21683 -21.6744
LeftArm  13.7422 38.7915 -46.2872
LeftForeArm  -47.1459 -37.4965 -10.6912
LeftHand  0.356373 7.43336 20.8543
RightShoulder  1.23197 1.39294 18.7108
RightArm  4.59411 -13.8727 59.0846
RightForeArm  -12.2632 60.9029 21.5369
RightHand  -0.856406 -0.750662 -22.1014
LeftUpLeg  -8.34647 -4.98471 3.23413
LeftLeg  30.1278 5.34169 3.6868
LeftFoot  -5.83068 0.625754 -12.0453
LeftToes  2.2737e-010 4.38529e-011 2.18788e-011
191
root  3.30642 39.2932 -0.473538 -36.7598 -86.2828 32.2478
RightUpLeg  -3.7045 0.52058 -0.0150087
RightLeg  28.7965 -9.97506 -6.02408
RightFoot  -11.2889 -0.0858926 5.30407
RightToes  -2.32832e-010 0 -3.6325e-017
Spine  13.4974 0.756401 0.88335
Spine1  -0.084797 1.46774 -3.97088
HEad  -16.484 -1.46906 -2.78035
LeftShoulder1  2.0811 -3.68537 -22.6449
LeftArm  5.18948 32.1556 -48.5002
LeftForeArm  -62.3833 -38.7142 -11.3457
LeftHand  0.862471 9.66271 23.4118
RightShoulder  1.46215 1.90778 20.7443
RightArm  -1.18434 -18.8336 55.3051
RightForeArm  -40.3114 56.6805 19.8304
RightHand  -0.368132 -4.19992 -33.5655
LeftUpLeg  -5.60044 -2.66022 0.619749
LeftLeg  24.596 5.7922 3.24813
LeftFoot  -9.84812 0.198191 -10.6486
LeftToes  2.2737e-010 4.38529e-011 2.18788e-011
192
root  3.63381 38.992 -0.531304 -47.497 -83.3617 43.3554
RightUpLeg  -11.684 -4.43937 -3.97857
RightLeg  41.3269 -5.24421 -5.14997
RightFoot  -6.26841 -0.444529 8.68078
RightToes  -2.32832e-010 0 -3.6325e-017
Spine  15.636 0.23505 -5.72004
Spine1  -1.40796 -0.546637 -0.935945
HEad  -19.9825 0.759936 -2.45118
LeftShoulder1  1.94629 -3.54444 -21.2349
LeftArm  -6.77741 25.675 -52.8646
LeftForeArm  -73.9794 -43.7189 -13.2492
LeftHand  1.14636 10.5275 25.6479
RightShoulder  1.4991 1.90079 21.4984
RightArm  -15.6164 -25.4626 51.8577
RightForeArm  -60.2585 60.4459 23.7806
RightHand  -0.488046 -4.19504 -44.4125
LeftUpLeg  -6.32304 -0.178014 -1.73774
LeftLeg  23.8488 3.6309 2.09494
LeftFoot  -10.908 0.0964663 -8.79925
LeftToes  2.2737e-010 4.38529e-011 2.18788e-011
193
root  4.06871 38.5901 -0.680575 -43.2367 -79.8036 38.6002
RightUpLeg  -20.463 -9.88728 -7.53081
RightLeg  55.0034 -1.76619 -3.15234
RightFoot  2.8961 -1.31974 10.7927
RightToes  -2.32832e-010 0 -3.6325e-017
Spine  19.9325 -0.758659 -12.962
Spine1  -4.16805 -3.66358 4.18136
HEad  -23.321 4.52829 -2.86264
LeftShoulder1  1.71845 -3.3933 -18.3336
LeftArm  -18.0936 20.7566 -57.3556
LeftForeArm  -73.4037 -53.7784 -18.4528
LeftHand  1.04116 9.81178 26.872
RightShoulder  1.40384 1.64256 21.0093
RightArm  -28.1102 -30.7597 48.4425
RightForeArm  -50.9917 69.4171 37.0144
RightHand  -1.53882 -1.98094 -50.2175
LeftUpLeg  -7.84124 0.115287 -3.48882
LeftLeg  25.7935 0.921882 0.845526
LeftFoot  -11.1289 0.081427 -8.74598
LeftToes  2.2737e-010 4.38529e-011 2.18788e-011
